<mxfile host="Electron" modified="2025-06-18T16:39:38.564Z" agent="Mozilla/5.0 (Windows NT 10.0; Win64; x64) AppleWebKit/537.36 (KHTML, like Gecko) draw.io/22.1.16 Chrome/120.0.6099.109 Electron/28.1.0 Safari/537.36" etag="q_TCygoJVdd9i68_c9Du" version="22.1.16" type="device">
  <diagram name="Page-1" id="ct0ApF6HZO7Tez4mtpb1">
    <mxGraphModel dx="1775" dy="1028" grid="1" gridSize="10" guides="1" tooltips="1" connect="1" arrows="1" fold="1" page="1" pageScale="1" pageWidth="1169" pageHeight="827" math="0" shadow="0">
      <root>
        <mxCell id="0" />
        <mxCell id="1" parent="0" />
        <mxCell id="lu_o_OBnBfsehs-RS0jP-5" style="edgeStyle=orthogonalEdgeStyle;rounded=0;orthogonalLoop=1;jettySize=auto;html=1;exitX=1;exitY=0.5;exitDx=0;exitDy=0;entryX=0;entryY=0.25;entryDx=0;entryDy=0;strokeWidth=4;fillColor=#fa6800;strokeColor=#C73500;" edge="1" parent="1" source="lu_o_OBnBfsehs-RS0jP-1" target="lu_o_OBnBfsehs-RS0jP-4">
          <mxGeometry relative="1" as="geometry" />
        </mxCell>
        <mxCell id="lu_o_OBnBfsehs-RS0jP-1" value="&lt;font style=&quot;font-size: 18px;&quot;&gt;&lt;b&gt;INPUT DATA (STRING)&lt;/b&gt;&lt;/font&gt;" style="rounded=1;whiteSpace=wrap;html=1;strokeWidth=4;fillColor=#d80073;fontColor=#ffffff;strokeColor=#A50040;" vertex="1" parent="1">
          <mxGeometry x="160" y="30" width="240" height="100" as="geometry" />
        </mxCell>
        <mxCell id="lu_o_OBnBfsehs-RS0jP-2" value="&lt;font style=&quot;font-size: 18px;&quot;&gt;&lt;b&gt;CONVERT DATA TO BOOLEAN ARRAY&lt;/b&gt;&lt;/font&gt;" style="rounded=1;whiteSpace=wrap;html=1;strokeWidth=4;fillColor=#60a917;fontColor=#ffffff;strokeColor=#2D7600;" vertex="1" parent="1">
          <mxGeometry x="630" y="100" width="240" height="100" as="geometry" />
        </mxCell>
        <mxCell id="lu_o_OBnBfsehs-RS0jP-3" value="&lt;b&gt;&lt;font style=&quot;font-size: 18px;&quot;&gt;LOOKUP TABLE&lt;/font&gt;&lt;/b&gt;" style="rounded=0;whiteSpace=wrap;html=1;strokeWidth=4;fillColor=#60a917;fontColor=#ffffff;strokeColor=#2D7600;" vertex="1" parent="1">
          <mxGeometry x="160" y="180" width="240" height="80" as="geometry" />
        </mxCell>
        <mxCell id="lu_o_OBnBfsehs-RS0jP-7" style="edgeStyle=orthogonalEdgeStyle;rounded=0;orthogonalLoop=1;jettySize=auto;html=1;exitX=1;exitY=0.5;exitDx=0;exitDy=0;entryX=0;entryY=0.5;entryDx=0;entryDy=0;strokeWidth=4;fillColor=#fa6800;strokeColor=#C73500;" edge="1" parent="1" source="lu_o_OBnBfsehs-RS0jP-4" target="lu_o_OBnBfsehs-RS0jP-2">
          <mxGeometry relative="1" as="geometry" />
        </mxCell>
        <mxCell id="lu_o_OBnBfsehs-RS0jP-4" value="" style="triangle;whiteSpace=wrap;html=1;strokeWidth=4;fillColor=#008a00;fontColor=#ffffff;strokeColor=#005700;" vertex="1" parent="1">
          <mxGeometry x="490" y="110" width="60" height="80" as="geometry" />
        </mxCell>
        <mxCell id="lu_o_OBnBfsehs-RS0jP-6" style="edgeStyle=orthogonalEdgeStyle;rounded=0;orthogonalLoop=1;jettySize=auto;html=1;exitX=1;exitY=0.5;exitDx=0;exitDy=0;entryX=-0.083;entryY=0.65;entryDx=0;entryDy=0;entryPerimeter=0;strokeWidth=4;fillColor=#fa6800;strokeColor=#C73500;" edge="1" parent="1" source="lu_o_OBnBfsehs-RS0jP-3" target="lu_o_OBnBfsehs-RS0jP-4">
          <mxGeometry relative="1" as="geometry" />
        </mxCell>
        <mxCell id="lu_o_OBnBfsehs-RS0jP-13" style="edgeStyle=orthogonalEdgeStyle;rounded=0;orthogonalLoop=1;jettySize=auto;html=1;entryX=0;entryY=0.5;entryDx=0;entryDy=0;strokeWidth=4;fillColor=#fa6800;strokeColor=#C73500;" edge="1" parent="1" source="lu_o_OBnBfsehs-RS0jP-9" target="lu_o_OBnBfsehs-RS0jP-11">
          <mxGeometry relative="1" as="geometry" />
        </mxCell>
        <mxCell id="lu_o_OBnBfsehs-RS0jP-9" value="&lt;font style=&quot;font-size: 18px;&quot;&gt;&lt;b&gt;CONVERT BOOLEAN ARRAY TO SINE WAVE&lt;/b&gt;&lt;/font&gt;" style="rounded=1;whiteSpace=wrap;html=1;strokeWidth=4;fillColor=#fa6800;fontColor=#000000;strokeColor=#C73500;" vertex="1" parent="1">
          <mxGeometry x="220" y="330" width="240" height="100" as="geometry" />
        </mxCell>
        <mxCell id="lu_o_OBnBfsehs-RS0jP-11" value="&lt;span style=&quot;font-size: 18px;&quot;&gt;&lt;b&gt;BUILD WAVEFORM&lt;/b&gt;&lt;/span&gt;" style="rounded=1;whiteSpace=wrap;html=1;strokeWidth=4;fillColor=#a0522d;fontColor=#ffffff;strokeColor=#6D1F00;" vertex="1" parent="1">
          <mxGeometry x="640" y="330" width="240" height="100" as="geometry" />
        </mxCell>
        <mxCell id="lu_o_OBnBfsehs-RS0jP-12" value="" style="curved=1;endArrow=classic;html=1;rounded=0;exitX=1;exitY=0.5;exitDx=0;exitDy=0;entryX=0;entryY=0.5;entryDx=0;entryDy=0;strokeWidth=4;fillColor=#fa6800;strokeColor=#C73500;" edge="1" parent="1" source="lu_o_OBnBfsehs-RS0jP-2" target="lu_o_OBnBfsehs-RS0jP-9">
          <mxGeometry width="50" height="50" relative="1" as="geometry">
            <mxPoint x="590" y="410" as="sourcePoint" />
            <mxPoint x="430" y="290" as="targetPoint" />
            <Array as="points">
              <mxPoint x="960" y="150" />
              <mxPoint x="1030" y="170" />
              <mxPoint x="990" y="300" />
              <mxPoint x="840" y="290" />
              <mxPoint x="550" y="290" />
              <mxPoint x="50" y="280" />
              <mxPoint x="60" y="380" />
            </Array>
          </mxGeometry>
        </mxCell>
        <mxCell id="lu_o_OBnBfsehs-RS0jP-17" style="edgeStyle=orthogonalEdgeStyle;rounded=0;orthogonalLoop=1;jettySize=auto;html=1;exitX=1;exitY=0.5;exitDx=0;exitDy=0;entryX=0;entryY=0.5;entryDx=0;entryDy=0;strokeWidth=4;fillColor=#fa6800;strokeColor=#C73500;" edge="1" parent="1" source="lu_o_OBnBfsehs-RS0jP-14" target="lu_o_OBnBfsehs-RS0jP-15">
          <mxGeometry relative="1" as="geometry" />
        </mxCell>
        <mxCell id="lu_o_OBnBfsehs-RS0jP-14" value="&lt;span style=&quot;font-size: 18px;&quot;&gt;&lt;b&gt;WRITE DATA TO ANALOG OUTPUT&lt;/b&gt;&lt;/span&gt;" style="rounded=1;whiteSpace=wrap;html=1;strokeWidth=4;fillColor=#76608a;fontColor=#ffffff;strokeColor=#432D57;" vertex="1" parent="1">
          <mxGeometry x="280" y="530" width="240" height="100" as="geometry" />
        </mxCell>
        <mxCell id="lu_o_OBnBfsehs-RS0jP-20" style="edgeStyle=orthogonalEdgeStyle;rounded=0;orthogonalLoop=1;jettySize=auto;html=1;exitX=1;exitY=0.5;exitDx=0;exitDy=0;entryX=0;entryY=0.5;entryDx=0;entryDy=0;strokeWidth=4;fillColor=#fa6800;strokeColor=#C73500;" edge="1" parent="1" source="lu_o_OBnBfsehs-RS0jP-15" target="lu_o_OBnBfsehs-RS0jP-19">
          <mxGeometry relative="1" as="geometry" />
        </mxCell>
        <mxCell id="lu_o_OBnBfsehs-RS0jP-15" value="" style="triangle;whiteSpace=wrap;html=1;strokeWidth=4;fillColor=#008a00;fontColor=#ffffff;strokeColor=#005700;" vertex="1" parent="1">
          <mxGeometry x="620" y="540" width="60" height="80" as="geometry" />
        </mxCell>
        <mxCell id="lu_o_OBnBfsehs-RS0jP-18" value="" style="curved=1;endArrow=classic;html=1;rounded=0;entryX=0;entryY=0.5;entryDx=0;entryDy=0;exitX=1;exitY=0.5;exitDx=0;exitDy=0;strokeWidth=4;fillColor=#fa6800;strokeColor=#C73500;" edge="1" parent="1" source="lu_o_OBnBfsehs-RS0jP-11" target="lu_o_OBnBfsehs-RS0jP-14">
          <mxGeometry width="50" height="50" relative="1" as="geometry">
            <mxPoint x="590" y="410" as="sourcePoint" />
            <mxPoint x="640" y="360" as="targetPoint" />
            <Array as="points">
              <mxPoint x="960" y="380" />
              <mxPoint x="1050" y="380" />
              <mxPoint x="1060" y="490" />
              <mxPoint x="510" y="450" />
              <mxPoint x="80" y="480" />
              <mxPoint x="50" y="580" />
            </Array>
          </mxGeometry>
        </mxCell>
        <mxCell id="lu_o_OBnBfsehs-RS0jP-19" value="&lt;span style=&quot;font-size: 18px;&quot;&gt;&lt;b&gt;CLEAR BUFFER&lt;/b&gt;&lt;/span&gt;" style="rounded=1;whiteSpace=wrap;html=1;strokeWidth=4;fillColor=#d80073;fontColor=#ffffff;strokeColor=#A50040;" vertex="1" parent="1">
          <mxGeometry x="780" y="530" width="240" height="100" as="geometry" />
        </mxCell>
      </root>
    </mxGraphModel>
  </diagram>
</mxfile>
